<svg width="75" height="35" viewBox="0 0 75 35" fill="none" xmlns="http://www.w3.org/2000/svg"><path fill-rule="evenodd" clip-rule="evenodd" d="M9.556 2.333v23.915H0V8.13l9.556-5.798zM11.467 32.093V8.033h9.557V26.297l-9.557 5.797z" fill="#fff"></path><path d="M31.561 10.839h3.058v15.459H31.56v-15.46z" fill="#fff"></path><path d="M31.561 10.839h3.058v15.459H31.56v-15.46zM51.937 18.52c0 4.27-3.449 7.732-7.703 7.732-4.254 0-7.702-3.462-7.702-7.732 0-4.271 3.449-7.733 7.702-7.733 4.254 0 7.703 3.462 7.703 7.732zm-12.324 0c0 2.562 2.07 4.639 4.621 4.639 2.553 0 4.622-2.077 4.622-4.64 0-2.562-2.07-4.639-4.622-4.639s-4.621 2.077-4.621 4.64z" fill="#fff"></path><path d="M48.856 6.31h3.08v20.027h-3.08V6.31zM53.807 6.227h3.081v20.027h-3.08V6.227zM74.06 19.77a7.852 7.852 0 0 0-1.151-5.44 7.703 7.703 0 0 0-4.451-3.274 7.62 7.62 0 0 0-5.475.57 7.752 7.752 0 0 0-3.699 4.12 7.863 7.863 0 0 0-.032 5.564 7.755 7.755 0 0 0 3.651 4.164 7.62 7.62 0 0 0 5.468.633 7.699 7.699 0 0 0 4.489-3.22l-2.562-1.727a4.62 4.62 0 0 1-2.693 1.933 4.572 4.572 0 0 1-3.28-.38 4.653 4.653 0 0 1-2.192-2.499 4.718 4.718 0 0 1 .02-3.339 4.65 4.65 0 0 1 2.22-2.472 4.572 4.572 0 0 1 3.284-.341c1.1.3 2.05.998 2.67 1.964.62.965.867 2.128.691 3.265l3.042.48z" fill="#fff"></path><path d="M60.24 17.074h13.617l.192 2.694h-13.81v-2.694z" fill="#fff"></path></svg>
