<svg width="96" height="96" viewBox="0 0 96 96" fill="none" xmlns="http://www.w3.org/2000/svg"><path d="M48 95a47 47 0 1 0 0-94 47 47 0 0 0 0 94z" fill="#2775C9"/><path d="M60.943 55.47c0-6.855-4.17-9.166-12.24-10.272-5.962-.862-7.108-2.262-7.108-5.043 0-2.78 2.017-4.514 5.875-4.514 3.515 0 5.542 1.224 6.374 4.054a1.497 1.497 0 0 0 1.42 1.087h3.084a1.372 1.372 0 0 0 1.381-1.596c-.979-4.475-3.995-7.168-8.724-8.01v-4.72a1.469 1.469 0 0 0-1.469-1.468h-2.938a1.468 1.468 0 0 0-1.468 1.468v4.553c-5.875.823-9.586 4.7-9.586 9.675 0 6.433 3.916 8.93 12.102 10.036 5.572.91 7.158 2.115 7.158 5.278 0 3.163-2.693 5.287-6.492 5.287-5.121 0-6.854-2.242-7.432-5.15a1.489 1.489 0 0 0-1.44-1.195h-3.348a1.37 1.37 0 0 0-1.361 1.596c.852 4.896 3.995 8.48 10.399 9.342v4.64a1.468 1.468 0 0 0 1.468 1.47h2.938a1.469 1.469 0 0 0 1.469-1.47v-4.64c6.07-.96 9.938-5.15 9.938-10.409z" fill="#fff"/><path d="M37.99 76.08a29.375 29.375 0 0 1 0-55.185 2.115 2.115 0 0 0 1.264-1.85v-2.743a1.39 1.39 0 0 0-1.958-1.4 35.25 35.25 0 0 0 0 67.171 1.39 1.39 0 0 0 1.958-1.4V77.93a2.115 2.115 0 0 0-1.263-1.85zM58.837 14.902a1.391 1.391 0 0 0-1.959 1.4v2.742a2.115 2.115 0 0 0 1.264 1.85 29.375 29.375 0 0 1 0 55.187 1.959 1.959 0 0 0-1.264 1.85v2.742a1.392 1.392 0 0 0 1.959 1.4 35.25 35.25 0 0 0 0-67.17z" fill="#fff"/></svg>